<svg width="595.3" height="594.1" xmlns="http://www.w3.org/2000/svg" xml:space="preserve" version="1.1">

 <g>
  <title>Layer 1</title>
  <g stroke="null" id="Pokéball_1_">
   <g stroke="null" id="Colours">
    <path transform="rotate(-37.1474 377.383 405.076)" stroke="null" fill="#ffadd7" d="m379.00436,368.0083c-46.79766,0 -85.83431,-33.12903 -95.10118,-77.14663l-155.68329,0c11.0044,127.99854 118.38417,228.42816 249.16277,228.42816s238.2742,-100.42962 249.16277,-228.42816l-152.43989,0c-9.26686,44.13343 -48.30352,77.14663 -95.10118,77.14663z" class="st0" id="Down"/>
    <path transform="rotate(-37.1474 497.532 309.982)" stroke="null" fill="#c183af" d="m401.56173,420.95292c103.78886,-24.32551 182.67303,-113.17156 191.93989,-221.94136l-61.39296,0c-6.1393,98.69209 -57.91789,182.32552 -130.54693,221.94136z" class="st1" id="Shadow_Down"/>
    <path transform="rotate(-37.1474 297.65 297.05)" stroke="null" fill="#FFFFFF" d="m354.93077,297.04998l0,0c-0.11584,0 -0.11584,0 0,0c-0.11584,-7.06598 -1.39003,-13.78446 -3.70674,-20.03959c-8.1085,-21.77713 -29.07478,-37.18329 -53.63197,-37.18329s-45.52346,15.52199 -53.63197,37.18329c-2.31672,6.25513 -3.59091,12.97361 -3.59091,20.03959c0,0 0,0 0,0l0.11584,0c0,0 0,0 0,0c0,7.06598 1.27419,13.78446 3.59091,20.03959c8.1085,21.77713 29.07478,37.18329 53.63197,37.18329c24.55719,0 45.52346,-15.52199 53.63197,-37.18329c2.31672,-6.1393 3.59091,-12.97361 3.59091,-20.03959c0,0 0,0 0,0z" class="st0" id="Center"/>
    <path transform="rotate(-37.1474 217.906 189.105)" stroke="null" fill="#ff00a5" d="m216.34231,226.23072c46.79766,0 85.83431,33.12903 95.10118,77.14663l155.68329,0c-11.0044,-128.11437 -118.38417,-228.544 -249.2786,-228.544s-238.15837,100.42962 -249.16277,228.42816l152.55572,0c9.26686,-44.0176 48.30352,-77.03079 95.10118,-77.03079z" class="st2" id="Up"/>
    <path transform="rotate(-37.1474 339.325 100.388)" stroke="null" fill="#c60081" d="m373.43908,211.93817l64.63637,0c-9.49853,-110.62317 -91.04692,-200.74341 -197.50001,-223.09971c73.90323,39.03666 126.60851,123.48094 132.86364,223.09971z" class="st3" id="Shadow_Up"/>
   </g>
   <path transform="rotate(-37.1474 297.65 297.05)" stroke="null" d="m299.21375,48.58225c130.89443,0 238.2742,100.42962 249.16277,228.42816l-155.68329,0c-9.26686,-44.0176 -48.30352,-77.14663 -95.10118,-77.14663c-46.79766,0 -85.83431,33.12903 -95.10118,77.14663l-152.43989,0c11.0044,-127.99854 118.38417,-228.42816 249.16277,-228.42816zm52.01027,228.42816c2.31672,6.25513 3.59091,12.97361 3.59091,20.03959c0,0 0,0 0,0l0.11584,0c0,0 0,0 0,0c0,7.06598 -1.27419,13.78446 -3.59091,20.03959c-8.1085,21.77713 -29.07478,37.18329 -53.63197,37.18329c-24.55719,0 -45.52346,-15.52199 -53.63197,-37.18329c-2.31672,-6.25513 -3.59091,-12.97361 -3.59091,-20.03959c0,0 0,0 0,0l-0.11584,0c0,0 0,0 0,0c0,-7.06598 1.27419,-13.78446 3.59091,-20.03959c8.1085,-21.77713 29.07478,-37.18329 53.63197,-37.18329s45.52346,15.52199 53.63197,37.18329zm-55.25367,268.62318c-130.89443,0 -238.2742,-100.42962 -249.16277,-228.42816l155.68329,0c9.26686,44.0176 48.30352,77.14663 95.10118,77.14663s85.83431,-33.12903 95.10118,-77.14663l152.55572,0c-11.0044,127.8827 -118.38417,228.42816 -249.2786,228.42816zm1.6217,-544.77568c-163.56012,0 -296.19209,132.63197 -296.19209,296.19209s132.63197,296.19209 296.19209,296.19209s296.30793,-132.51613 296.30793,-296.19209s-132.63197,-296.19209 -296.30793,-296.19209z" id="Line"/>
  </g>
  <ellipse id="svg_3" cy="319.95001" cx="279.64999" stroke="null"/>
  <ellipse stroke="null" fill="#000000" ry="106.99998" rx="106.99998" id="svg_6" cy="297.05001" cx="297.65"/>
  <ellipse stroke="null" fill="#ffffff" ry="65.99998" rx="65.99998" id="svg_7" cy="297.04999" cx="297.65001"/>
 </g>
</svg>